<mxfile host="app.diagrams.net" modified="2020-10-26T11:16:21.674Z" agent="5.0 (Windows NT 10.0; Win64; x64) AppleWebKit/537.36 (KHTML, like Gecko) Chrome/77.0.3865.90 Safari/537.36" etag="FJak4DUYVPEa8aDVFpnO" version="13.8.2" type="github">
  <diagram id="hl56yfetpkZTC3vXIedy" name="第 1 页">
    <mxGraphModel dx="1422" dy="745" grid="1" gridSize="10" guides="1" tooltips="1" connect="1" arrows="1" fold="1" page="1" pageScale="1" pageWidth="1169" pageHeight="1654" math="0" shadow="0">
      <root>
        <mxCell id="0" />
        <mxCell id="1" parent="0" />
        <mxCell id="-9Mtz2GCRb9Vz_m4Vo6k-1" value="validateDmRequest()" style="rounded=1;whiteSpace=wrap;html=1;" vertex="1" parent="1">
          <mxGeometry x="20" y="130" width="120" height="60" as="geometry" />
        </mxCell>
        <mxCell id="-9Mtz2GCRb9Vz_m4Vo6k-2" value="preAskService()" style="rounded=1;whiteSpace=wrap;html=1;" vertex="1" parent="1">
          <mxGeometry x="20" y="230" width="120" height="60" as="geometry" />
        </mxCell>
        <mxCell id="-9Mtz2GCRb9Vz_m4Vo6k-3" value="initcheck()" style="rounded=1;whiteSpace=wrap;html=1;" vertex="1" parent="1">
          <mxGeometry x="20" y="330" width="120" height="60" as="geometry" />
        </mxCell>
        <mxCell id="-9Mtz2GCRb9Vz_m4Vo6k-4" value="getSlot()" style="rounded=1;whiteSpace=wrap;html=1;" vertex="1" parent="1">
          <mxGeometry x="20" y="430" width="120" height="60" as="geometry" />
        </mxCell>
        <mxCell id="-9Mtz2GCRb9Vz_m4Vo6k-5" value="checkSlots()" style="rounded=1;whiteSpace=wrap;html=1;" vertex="1" parent="1">
          <mxGeometry x="20" y="530" width="120" height="60" as="geometry" />
        </mxCell>
        <mxCell id="-9Mtz2GCRb9Vz_m4Vo6k-6" value="doSlotService()" style="rounded=1;whiteSpace=wrap;html=1;" vertex="1" parent="1">
          <mxGeometry x="20" y="630" width="120" height="60" as="geometry" />
        </mxCell>
        <mxCell id="-9Mtz2GCRb9Vz_m4Vo6k-7" value="doApiService()" style="rounded=1;whiteSpace=wrap;html=1;" vertex="1" parent="1">
          <mxGeometry x="20" y="730" width="120" height="60" as="geometry" />
        </mxCell>
        <mxCell id="-9Mtz2GCRb9Vz_m4Vo6k-8" value="getDirective()" style="rounded=1;whiteSpace=wrap;html=1;" vertex="1" parent="1">
          <mxGeometry x="20" y="830" width="120" height="60" as="geometry" />
        </mxCell>
        <mxCell id="-9Mtz2GCRb9Vz_m4Vo6k-9" value="getNamespace()" style="rounded=1;whiteSpace=wrap;html=1;" vertex="1" parent="1">
          <mxGeometry x="20" y="930" width="120" height="60" as="geometry" />
        </mxCell>
        <mxCell id="-9Mtz2GCRb9Vz_m4Vo6k-10" value="getPayload()" style="rounded=1;whiteSpace=wrap;html=1;" vertex="1" parent="1">
          <mxGeometry x="20" y="1030" width="120" height="60" as="geometry" />
        </mxCell>
        <mxCell id="-9Mtz2GCRb9Vz_m4Vo6k-11" value="getResult()" style="rounded=1;whiteSpace=wrap;html=1;" vertex="1" parent="1">
          <mxGeometry x="20" y="1130" width="120" height="60" as="geometry" />
        </mxCell>
      </root>
    </mxGraphModel>
  </diagram>
</mxfile>
